<svg width="20" height="25" viewBox="0 0 20 25" fill="none" xmlns="http://www.w3.org/2000/svg">
<path d="M16.608 8.66614H17.5V9.16614C16.923 11.9971 16.5 14.8801 16.5 17.7701V18.6661H15.589M16.608 8.66614C16.848 7.15814 17.128 5.65614 17.448 4.16014C17.482 3.99814 17.5 3.83214 17.5 3.66614H2.5C2.5 3.83214 2.518 3.99814 2.552 4.16014C2.872 5.65614 3.152 7.15814 3.392 8.66614H16.608ZM15.589 18.6661C15.5297 19.9866 15.5 21.3083 15.5 22.6301V23.6661H4.5V22.6301C4.5 21.3071 4.47 19.9861 4.411 18.6661M15.589 18.6661H4.411M4.411 18.6661H3.5V17.7701C3.5 14.8801 3.077 11.9971 2.5 9.16614V8.66614H3.391M0.5 3.66614V3.16614L1.086 2.87314C1.99142 2.42038 2.6799 1.6265 3 0.666138H17C17.3201 1.6265 18.0086 2.42038 18.914 2.87314L19.5 3.16614V3.66614H0.5Z" stroke="white"/>
</svg>
